<svg width="24" height="24" viewBox="0 0 24 24" fill="none" xmlns="http://www.w3.org/2000/svg">
<path d="M15.3334 13.5601C15.0351 14.6642 14.3416 15.6204 13.3847 16.247C12.4279 16.8736 11.2742 17.1269 10.1428 16.9589C9.01144 16.7909 7.98116 16.2133 7.24764 15.3357C6.51411 14.4581 6.12842 13.3417 6.16382 12.1985C6.19921 11.0552 6.65322 9.96483 7.43963 9.13429C8.22604 8.30376 9.29008 7.79096 10.4297 7.69327C11.5693 7.59558 12.7051 7.91981 13.6213 8.60439C14.5376 9.28896 15.1706 10.2862 15.4001 11.4067M16.9201 15.0134C16.3127 16.4088 15.2462 17.5544 13.8978 18.2599C12.5493 18.9654 11.0001 19.1883 9.50744 18.8915C8.0148 18.5948 6.66861 17.7963 5.69251 16.6287C4.71642 15.4612 4.16918 13.9948 4.14171 12.4731C4.11425 10.9515 4.60821 9.46635 5.54153 8.26429C6.47485 7.06223 7.79135 6.21569 9.27231 5.86528C10.7533 5.51488 12.3095 5.68172 13.6826 6.33808C15.0556 6.99444 16.1627 8.10082 16.8201 9.47339L16.9201 15.0134ZM13.3334 13.2201C13.1291 13.8097 12.7245 14.3091 12.19 14.6312C11.6556 14.9533 11.025 15.0777 10.4083 14.9829C9.79147 14.888 9.22748 14.5798 8.81449 14.112C8.40149 13.6442 8.16565 13.0463 8.14802 12.4226C8.13038 11.7988 8.33208 11.1885 8.71798 10.6981C9.10389 10.2077 9.64956 9.86819 10.26 9.73864C10.8705 9.60908 11.507 9.69772 12.0588 9.98912C12.6107 10.2805 13.0428 10.7562 13.2801 11.3334L13.3334 13.2201Z" stroke="#73D6FF" stroke-width="1.6" stroke-miterlimit="10" stroke-linecap="round"/>
<path d="M10.6665 12.3467H15.9865" stroke="#73D6FF" stroke-width="1.6" stroke-miterlimit="10" stroke-linecap="round"/>
<path d="M19.9868 13.68H17.3201L15.9868 12.3466L17.3201 11.0133H19.9868L18.6535 12.3466L19.9868 13.68Z" stroke="#73D6FF" stroke-width="1.6" stroke-miterlimit="10" stroke-linecap="round"/>
<path d="M10.7603 12.92C11.077 12.92 11.3337 12.6633 11.3337 12.3466C11.3337 12.03 11.077 11.7733 10.7603 11.7733C10.4437 11.7733 10.187 12.03 10.187 12.3466C10.187 12.6633 10.4437 12.92 10.7603 12.92Z" stroke="#73D6FF" stroke-width="1.6" stroke-miterlimit="10" stroke-linecap="round"/>
</svg>
