<svg width="24" height="24" viewBox="0 0 24 24" fill="none" xmlns="http://www.w3.org/2000/svg">
<g clip-path="url(#clip0_195_896)">
<path d="M3.85961 16.3898C3.89445 16.4247 3.93583 16.4524 3.98139 16.4713C4.02695 16.4902 4.07579 16.5 4.12511 16.5C4.17444 16.5 4.22328 16.4902 4.26884 16.4713C4.3144 16.4524 4.35578 16.4247 4.39061 16.3898L5.45036 15.33C5.51867 15.2593 5.55647 15.1646 5.55562 15.0663C5.55476 14.9679 5.51532 14.8739 5.4458 14.8044C5.37627 14.7348 5.28221 14.6954 5.18389 14.6945C5.08557 14.6937 4.99084 14.7315 4.92011 14.7998L4.50011 15.2198V13.125C4.50011 12.8267 4.61864 12.5405 4.82962 12.3295C5.0406 12.1186 5.32675 12 5.62511 12H11.6251V15.2198L11.2044 14.799C11.1336 14.7307 11.0389 14.6929 10.9406 14.6938C10.8423 14.6946 10.7482 14.7341 10.6787 14.8036C10.6092 14.8731 10.5697 14.9672 10.5689 15.0655C10.568 15.1638 10.6058 15.2586 10.6741 15.3293L11.7339 16.389C11.7687 16.424 11.8101 16.4517 11.8556 16.4706C11.9012 16.4895 11.95 16.4992 11.9994 16.4992C12.0487 16.4992 12.0975 16.4895 12.1431 16.4706C12.1886 16.4517 12.23 16.424 12.2649 16.389L13.3246 15.3293C13.3929 15.2586 13.4307 15.1638 13.4299 15.0655C13.429 14.9672 13.3896 14.8731 13.32 14.8036C13.2505 14.7341 13.1565 14.6946 13.0581 14.6938C12.9598 14.6929 12.8651 14.7307 12.7944 14.799L12.3736 15.2198V12H18.3736C18.5215 11.9998 18.6679 12.0288 18.8046 12.0852C18.9413 12.1417 19.0655 12.2245 19.1701 12.329C19.2747 12.4335 19.3577 12.5576 19.4143 12.6942C19.471 12.8308 19.5001 12.9772 19.5001 13.125V15.2198L19.0794 14.799C19.0086 14.7307 18.9139 14.6929 18.8156 14.6938C18.7173 14.6946 18.6232 14.7341 18.5537 14.8036C18.4842 14.8731 18.4447 14.9672 18.4439 15.0655C18.443 15.1638 18.4808 15.2586 18.5491 15.3293L19.6089 16.389C19.6437 16.424 19.6851 16.4517 19.7306 16.4706C19.7762 16.4895 19.825 16.4992 19.8744 16.4992C19.9237 16.4992 19.9725 16.4895 20.0181 16.4706C20.0636 16.4517 20.105 16.424 20.1399 16.389L21.1996 15.3293C21.2679 15.2586 21.3057 15.1638 21.3049 15.0655C21.304 14.9672 21.2646 14.8731 21.195 14.8036C21.1255 14.7341 21.0315 14.6946 20.9331 14.6938C20.8348 14.6929 20.7401 14.7307 20.6694 14.799L20.2501 15.2198V13.125C20.2501 12.6278 20.0526 12.1508 19.7009 11.7992C19.3493 11.4476 18.8724 11.25 18.3751 11.25H12.3751V9.73128C13.6318 9.63433 14.8021 9.05439 15.6405 8.11317C16.4788 7.17194 16.92 5.9426 16.8715 4.68309C16.823 3.42358 16.2885 2.23181 15.3803 1.35787C14.472 0.483921 13.2606 -0.00427246 12.0001 -0.00427246C10.7397 -0.00427246 9.52822 0.483921 8.61996 1.35787C7.7117 2.23181 7.17724 3.42358 7.12873 4.68309C7.08021 5.9426 7.52142 7.17194 8.35976 8.11317C9.1981 9.05439 10.3684 9.63433 11.6251 9.73128V11.25H5.62511C5.12783 11.25 4.65092 11.4476 4.29929 11.7992C3.94766 12.1508 3.75011 12.6278 3.75011 13.125V15.2198L3.32936 14.799C3.25864 14.7307 3.16391 14.6929 3.06559 14.6938C2.96727 14.6946 2.87321 14.7341 2.80368 14.8036C2.73415 14.8731 2.69472 14.9672 2.69386 15.0655C2.69301 15.1638 2.73081 15.2586 2.79911 15.3293L3.85961 16.3898ZM7.87511 4.87503C7.87511 4.05919 8.11704 3.26166 8.5703 2.58331C9.02356 1.90495 9.6678 1.37624 10.4215 1.06403C11.1753 0.751818 12.0047 0.67013 12.8049 0.829294C13.605 0.988458 14.34 1.38133 14.9169 1.95822C15.4938 2.53511 15.8867 3.27011 16.0459 4.07029C16.205 4.87046 16.1233 5.69986 15.8111 6.4536C15.4989 7.20735 14.9702 7.85158 14.2918 8.30485C13.6135 8.75811 12.816 9.00003 12.0001 9.00003C10.9065 8.99884 9.85794 8.56386 9.08461 7.79053C8.31129 7.0172 7.87631 5.96869 7.87511 4.87503Z" fill="#353638"/>
<path d="M13.6798 3.10297C13.7457 3.1689 13.7828 3.25832 13.7828 3.35156H13.7846C13.7846 3.4448 13.7476 3.53422 13.6817 3.60015C13.6157 3.66609 13.5263 3.70312 13.4331 3.70312H12.9845C13.0524 3.81712 13.1042 3.94001 13.1382 4.06828H13.4331C13.5263 4.06828 13.6157 4.10532 13.6817 4.17125C13.7476 4.23718 13.7846 4.3266 13.7846 4.41984C13.7846 4.51308 13.7476 4.60251 13.6817 4.66844C13.6157 4.73437 13.5263 4.77141 13.4331 4.77141H13.1471C13.0724 5.08554 12.894 5.36533 12.6408 5.56562C12.3875 5.76591 12.0741 5.87501 11.7512 5.87531H11.7207L13.0407 7.15781C13.1066 7.223 13.1441 7.31155 13.145 7.40421C13.1459 7.49687 13.1102 7.58615 13.0456 7.65263C12.9811 7.71911 12.8929 7.7574 12.8002 7.75919C12.7076 7.76098 12.618 7.72612 12.5509 7.66219L10.6075 5.77406C10.5547 5.72326 10.5192 5.65726 10.5059 5.58528C10.4925 5.5133 10.502 5.43895 10.533 5.37263C10.564 5.3063 10.615 5.25133 10.6787 5.21539C10.7425 5.17945 10.8159 5.16434 10.8887 5.17219H11.7531C11.8878 5.17191 12.0199 5.13432 12.1345 5.06358C12.2492 4.99283 12.3421 4.8917 12.4028 4.77141H10.8695C10.7762 4.77141 10.6868 4.73437 10.6209 4.66844C10.555 4.60251 10.5179 4.51308 10.5179 4.41984C10.5179 4.3266 10.555 4.23718 10.6209 4.17125C10.6868 4.10532 10.7762 4.06828 10.8695 4.06828H12.3831C12.3193 3.95753 12.2275 3.86549 12.1169 3.8014C12.0064 3.7373 11.8809 3.70342 11.7531 3.70312H10.8695C10.7762 3.70312 10.6868 3.66609 10.6209 3.60015C10.555 3.53422 10.5179 3.4448 10.5179 3.35156C10.5179 3.25832 10.555 3.1689 10.6209 3.10297C10.6868 3.03704 10.7762 3 10.8695 3H13.4312C13.5244 3 13.6139 3.03704 13.6798 3.10297Z" fill="#353638"/>
<path d="M5.6798 18.603C5.74573 18.6689 5.78277 18.7583 5.78277 18.8516H5.78465C5.78465 18.9448 5.74761 19.0342 5.68168 19.1002C5.61574 19.1661 5.52632 19.2031 5.43308 19.2031H4.98449C5.05244 19.3171 5.10419 19.44 5.13824 19.5683H5.43308C5.52632 19.5683 5.61574 19.6053 5.68168 19.6713C5.74761 19.7372 5.78465 19.8266 5.78465 19.9198C5.78465 20.0131 5.74761 20.1025 5.68168 20.1684C5.61574 20.2344 5.52632 20.2714 5.43308 20.2714H5.14715C5.07243 20.5855 4.89404 20.8653 4.64076 21.0656C4.38749 21.2659 4.07411 21.375 3.75121 21.3753H3.72074L5.04074 22.6578C5.10661 22.723 5.14407 22.8115 5.14499 22.9042C5.14591 22.9969 5.1102 23.0862 5.04564 23.1526C4.98108 23.2191 4.89289 23.2574 4.80024 23.2592C4.70759 23.261 4.61798 23.2261 4.5509 23.1622L2.60746 21.2741C2.55475 21.2233 2.51923 21.1573 2.50589 21.0853C2.49254 21.0133 2.50202 20.9389 2.53301 20.8726C2.564 20.8063 2.61495 20.7513 2.67873 20.7154C2.74251 20.6794 2.81592 20.6643 2.88871 20.6722H3.75308C3.88783 20.6719 4.01986 20.6343 4.13454 20.5636C4.24923 20.4928 4.34207 20.3917 4.40277 20.2714H2.86949C2.77625 20.2714 2.68683 20.2344 2.6209 20.1684C2.55497 20.1025 2.51793 20.0131 2.51793 19.9198C2.51793 19.8266 2.55497 19.7372 2.6209 19.6713C2.68683 19.6053 2.77625 19.5683 2.86949 19.5683H4.38308C4.3193 19.4575 4.22752 19.3655 4.11695 19.3014C4.00637 19.2373 3.88089 19.2034 3.75308 19.2031H2.86949C2.77625 19.2031 2.68683 19.1661 2.6209 19.1002C2.55497 19.0342 2.51793 18.9448 2.51793 18.8516C2.51793 18.7583 2.55497 18.6689 2.6209 18.603C2.68683 18.537 2.77625 18.5 2.86949 18.5H5.43121C5.52445 18.5 5.61387 18.537 5.6798 18.603Z" fill="#353638"/>
<path d="M13.6798 18.603C13.7457 18.6689 13.7828 18.7583 13.7828 18.8516H13.7846C13.7846 18.9448 13.7476 19.0342 13.6817 19.1002C13.6157 19.1661 13.5263 19.2031 13.4331 19.2031H12.9845C13.0524 19.3171 13.1042 19.44 13.1382 19.5683H13.4331C13.5263 19.5683 13.6157 19.6053 13.6817 19.6713C13.7476 19.7372 13.7846 19.8266 13.7846 19.9198C13.7846 20.0131 13.7476 20.1025 13.6817 20.1684C13.6157 20.2344 13.5263 20.2714 13.4331 20.2714H13.1471C13.0724 20.5855 12.894 20.8653 12.6408 21.0656C12.3875 21.2659 12.0741 21.375 11.7512 21.3753H11.7207L13.0407 22.6578C13.1066 22.723 13.1441 22.8115 13.145 22.9042C13.1459 22.9969 13.1102 23.0862 13.0456 23.1526C12.9811 23.2191 12.8929 23.2574 12.8002 23.2592C12.7076 23.261 12.618 23.2261 12.5509 23.1622L10.6075 21.2741C10.5547 21.2233 10.5192 21.1573 10.5059 21.0853C10.4925 21.0133 10.502 20.9389 10.533 20.8726C10.564 20.8063 10.615 20.7513 10.6787 20.7154C10.7425 20.6794 10.8159 20.6643 10.8887 20.6722H11.7531C11.8878 20.6719 12.0199 20.6343 12.1345 20.5636C12.2492 20.4928 12.3421 20.3917 12.4028 20.2714H10.8695C10.7762 20.2714 10.6868 20.2344 10.6209 20.1684C10.555 20.1025 10.5179 20.0131 10.5179 19.9198C10.5179 19.8266 10.555 19.7372 10.6209 19.6713C10.6868 19.6053 10.7762 19.5683 10.8695 19.5683H12.3831C12.3193 19.4575 12.2275 19.3655 12.1169 19.3014C12.0064 19.2373 11.8809 19.2034 11.7531 19.2031H10.8695C10.7762 19.2031 10.6868 19.1661 10.6209 19.1002C10.555 19.0342 10.5179 18.9448 10.5179 18.8516C10.5179 18.7583 10.555 18.6689 10.6209 18.603C10.6868 18.537 10.7762 18.5 10.8695 18.5H13.4312C13.5244 18.5 13.6139 18.537 13.6798 18.603Z" fill="#353638"/>
<path d="M21.1798 18.603C21.2457 18.6689 21.2828 18.7583 21.2828 18.8516H21.2846C21.2846 18.9448 21.2476 19.0342 21.1817 19.1002C21.1157 19.1661 21.0263 19.2031 20.9331 19.2031H20.4845C20.5524 19.3171 20.6042 19.44 20.6382 19.5683H20.9331C21.0263 19.5683 21.1157 19.6053 21.1817 19.6713C21.2476 19.7372 21.2846 19.8266 21.2846 19.9198C21.2846 20.0131 21.2476 20.1025 21.1817 20.1684C21.1157 20.2344 21.0263 20.2714 20.9331 20.2714H20.6471C20.5724 20.5855 20.394 20.8653 20.1408 21.0656C19.8875 21.2659 19.5741 21.375 19.2512 21.3753H19.2207L20.5407 22.6578C20.6066 22.723 20.6441 22.8115 20.645 22.9042C20.6459 22.9969 20.6102 23.0862 20.5456 23.1526C20.4811 23.2191 20.3929 23.2574 20.3002 23.2592C20.2076 23.261 20.118 23.2261 20.0509 23.1622L18.1075 21.2741C18.0547 21.2233 18.0192 21.1573 18.0059 21.0853C17.9925 21.0133 18.002 20.9389 18.033 20.8726C18.064 20.8063 18.115 20.7513 18.1787 20.7154C18.2425 20.6794 18.3159 20.6643 18.3887 20.6722H19.2531C19.3878 20.6719 19.5199 20.6343 19.6345 20.5636C19.7492 20.4928 19.8421 20.3917 19.9028 20.2714H18.3695C18.2762 20.2714 18.1868 20.2344 18.1209 20.1684C18.055 20.1025 18.0179 20.0131 18.0179 19.9198C18.0179 19.8266 18.055 19.7372 18.1209 19.6713C18.1868 19.6053 18.2762 19.5683 18.3695 19.5683H19.8831C19.8193 19.4575 19.7275 19.3655 19.6169 19.3014C19.5064 19.2373 19.3809 19.2034 19.2531 19.2031H18.3695C18.2762 19.2031 18.1868 19.1661 18.1209 19.1002C18.055 19.0342 18.0179 18.9448 18.0179 18.8516C18.0179 18.7583 18.055 18.6689 18.1209 18.603C18.1868 18.537 18.2762 18.5 18.3695 18.5H20.9312C21.0244 18.5 21.1139 18.537 21.1798 18.603Z" fill="#353638"/>
</g>
<defs>
<clipPath id="clip0_195_896">
<rect width="24" height="24" fill="white"/>
</clipPath>
</defs>
</svg>
