<svg width="473" height="380" viewBox="0 0 473 380" fill="none" xmlns="http://www.w3.org/2000/svg">
<g style="mix-blend-mode:multiply" opacity="0.5">
<path d="M190.864 286.388H147.648V310.067H190.864V286.388Z" fill="#FFCC00"/>
</g>
<path d="M399.612 0.612305H210.224C199.214 0.612305 190.289 9.53775 190.289 20.5479V317.366C190.289 328.376 199.214 337.302 210.224 337.302H399.612C410.622 337.302 419.547 328.376 419.547 317.366V20.5479C419.547 9.53775 410.622 0.612305 399.612 0.612305Z" fill="#EBF3FA"/>
<path d="M397.396 291.882V22.7518L212.439 22.7518L212.439 291.882H397.396Z" fill="white"/>
<path opacity="0.5" d="M233 101H223V148H233V101Z" fill="#F3A100"/>
<path opacity="0.5" d="M248 93H238V148H248V93Z" fill="#1E2346"/>
<path opacity="0.5" d="M264 76H254V148H264V76Z" fill="#F3A100"/>
<path opacity="0.5" d="M279 95H269V148H279V95Z" fill="#1E2346"/>
<path opacity="0.5" d="M295 115H285V148H295V115Z" fill="#F3A100"/>
<path opacity="0.5" d="M310 91H300V148H310V91Z" fill="#F3A100"/>
<path opacity="0.5" d="M325.961 120.779H315.993V148.468H325.961V120.779Z" fill="#1E2346"/>
<path opacity="0.5" d="M341.466 129.086H331.499V148.468H341.466V129.086Z" fill="#F3A100"/>
<path opacity="0.5" d="M356.972 108.597H347.004V148.468H356.972V108.597Z" fill="#F3A100"/>
<path opacity="0.5" d="M372.478 97.5212H362.51V148.468H372.478V97.5212Z" fill="#1E2346"/>
<path opacity="0.5" d="M387.983 88.661H378.015V148.468H387.983V88.661Z" fill="#F3A100"/>
<path opacity="0.5" d="M378.026 266.973H387.994V207.167H378.026V266.973Z" fill="#F3A100"/>
<path opacity="0.5" d="M362.521 266.973H372.489V196.091H362.521V266.973Z" fill="#1E2346"/>
<path opacity="0.5" d="M347.017 266.973H356.984V175.048H347.017V266.973Z" fill="#F3A100"/>
<path opacity="0.5" d="M331.511 266.973H341.479V199.414H331.511V266.973Z" fill="#1E2346"/>
<path opacity="0.5" d="M316.006 266.973H325.974V224.887H316.006V266.973Z" fill="#F3A100"/>
<path opacity="0.5" d="M300.5 266.973H310.468V194.43H300.5V266.973Z" fill="#F3A100"/>
<path opacity="0.5" d="M284.995 266.973H294.962V239.285H284.995V266.973Z" fill="#1E2346"/>
<path opacity="0.5" d="M269.489 266.973H279.457V247.592H269.489V266.973Z" fill="#F3A100"/>
<path opacity="0.5" d="M253.984 266.973H263.952V227.102H253.984V266.973Z" fill="#F3A100"/>
<path opacity="0.5" d="M238.478 266.973H248.446V216.027H238.478V266.973Z" fill="#1E2346"/>
<path opacity="0.5" d="M222.973 266.973H232.94V207.167H222.973V266.973Z" fill="#F3A100"/>
<path d="M304.919 323.457C311.341 323.457 316.548 318.251 316.548 311.828C316.548 305.406 311.341 300.199 304.919 300.199C298.496 300.199 293.29 305.406 293.29 311.828C293.29 318.251 298.496 323.457 304.919 323.457Z" fill="white"/>
<path d="M455.311 136.13H232.31V251.224H455.311V136.13Z" fill="#90BCFF"/>
<path d="M424.609 238.632H263.02V236.837C263.02 225.928 255.046 217.057 245.244 217.057H243.627V170.297H245.244C255.046 170.297 263.02 161.437 263.02 150.516V148.711H424.609V150.516C424.609 161.426 432.583 170.297 442.385 170.297H444.002V217.057H442.44C432.639 217.057 424.664 225.917 424.664 236.837L424.609 238.632ZM266.232 235.043H421.397C422.195 223.58 430.435 214.399 440.735 213.524V173.83C430.435 172.944 422.195 163.774 421.397 152.311H266.177C265.39 163.774 257.15 172.944 246.85 173.83V213.524C257.15 214.399 265.39 223.58 266.177 235.021L266.232 235.043Z" fill="#5A9997"/>
<path d="M365.456 173.841H359.752C359.116 172.252 358.258 170.761 357.205 169.411H363.086L368.048 162.124L365.456 160.152H325.419L320.457 167.429L323.049 169.411H342.442C344.379 169.398 346.287 169.886 347.979 170.829C348.862 171.723 349.591 172.755 350.139 173.885H324.533L319.571 181.173L322.163 183.144H350.35C349.491 185.222 348.034 186.999 346.165 188.249C344.296 189.498 342.099 190.166 339.85 190.166H320.911V198.473L336.118 225.275L338.709 227.246H349.165L333.659 199.381H342.519C347.024 199.337 351.361 197.664 354.728 194.672C358.095 191.679 360.266 187.569 360.838 183.1H363.053L368.015 175.824L365.456 173.841Z" fill="#5A9997"/>
<path d="M354.614 167.384H360.483L365.445 160.108H325.419L320.457 167.384H339.85C341.992 167.384 344.09 167.989 345.902 169.13C347.715 170.27 349.168 171.9 350.095 173.83H324.533L319.571 181.118H350.97C350.427 183.655 349.032 185.931 347.017 187.566C345.003 189.202 342.49 190.1 339.894 190.111H320.956V198.473L336.118 225.275H346.573L331.067 197.398H339.928C344.432 197.36 348.77 195.69 352.138 192.699C355.506 189.707 357.676 185.597 358.246 181.129H360.483L365.445 173.841H357.825C357.186 171.5 356.095 169.306 354.614 167.384Z" fill="#A2C2C0"/>
<path d="M450.603 130.204H227.602V245.299H450.603V130.204Z" fill="#B6D3FF"/>
<path d="M419.892 232.706H258.303V230.912C258.303 220.003 250.329 211.132 240.527 211.132H238.91V164.372H240.527C250.329 164.372 258.303 155.512 258.303 144.591V142.786H419.892V144.591C419.892 155.5 427.866 164.372 437.668 164.372H439.285V211.132H437.668C427.866 211.132 419.892 219.992 419.892 230.912V232.706ZM261.515 229.118H416.724C417.511 217.655 425.762 208.474 436.051 207.599V167.894C425.762 167.019 417.511 157.848 416.724 146.385H261.471C260.684 157.848 252.433 167.019 242.144 167.894V207.599C252.433 208.44 260.684 217.655 261.471 229.118H261.515Z" fill="#68B0AE"/>
<path d="M360.748 167.916H355.044C354.403 166.329 353.546 164.838 352.497 163.486H358.367L363.34 156.198L360.748 154.171H320.711L315.749 161.448L318.341 163.43H337.734C339.325 163.149 340.965 163.44 342.363 164.251C343.761 165.061 344.828 166.34 345.376 167.86H319.825L314.852 175.214L317.444 177.186H345.641C344.781 179.263 343.325 181.038 341.456 182.288C339.587 183.538 337.39 184.206 335.142 184.208H316.181V192.547L331.421 219.361L334.012 221.332H344.478L328.973 193.467H337.833C342.338 193.423 346.675 191.75 350.042 188.757C353.409 185.765 355.58 181.654 356.152 177.186H358.3L363.273 169.909L360.748 167.916Z" fill="#68B0AE"/>
<path d="M349.905 161.459H355.775L360.748 154.182H320.711L315.749 161.459H335.142C337.282 161.458 339.379 162.063 341.19 163.204C343.001 164.345 344.452 165.974 345.376 167.905H319.825L314.852 175.215H346.251C345.711 177.754 344.318 180.032 342.302 181.668C340.287 183.305 337.771 184.201 335.175 184.208H316.181V192.547L331.421 219.361H341.887L326.381 191.484H335.242C339.757 191.459 344.11 189.796 347.491 186.804C350.872 183.811 353.053 179.693 353.627 175.215H355.775L360.748 167.927H353.117C352.474 165.584 351.383 163.388 349.905 161.459Z" fill="#B5D9D7"/>
<path d="M442.806 123.803H219.805V238.897H442.806V123.803Z" fill="#DCEAFF"/>
<path d="M412.105 226.316H250.505V224.522C250.505 213.613 242.531 204.73 232.785 204.73H231.168V157.981H232.785C242.587 157.981 250.505 149.121 250.505 138.19V136.451H412.105V138.245C412.105 149.154 420.079 158.037 429.881 158.037H431.487V204.786H429.881C420.079 204.786 412.105 213.646 412.105 224.577V226.316ZM253.728 222.716H408.927C409.713 211.254 417.964 202.083 428.264 201.208V161.503C417.964 160.628 409.713 151.458 408.927 139.995H253.673C252.887 151.458 244.647 160.628 234.347 161.503V201.208C244.647 202.083 252.887 211.254 253.673 222.716H253.728Z" fill="#B1CDF8"/>
<path d="M352.952 161.525H347.249C346.609 159.938 345.751 158.447 344.701 157.095H350.582L355.544 149.819L352.952 147.836H312.915L307.953 155.124L310.545 157.095H329.938C331.875 157.088 333.781 157.576 335.476 158.513C336.356 159.413 337.085 160.449 337.635 161.581H312.029L307.067 168.868L309.659 170.84H337.846C336.987 172.918 335.53 174.694 333.661 175.944C331.792 177.194 329.595 177.861 327.346 177.861H308.43V186.201L323.68 213.003L326.272 214.986H336.727L321.222 187.109H330.082C334.599 187.074 338.949 185.399 342.322 182.396C345.696 179.393 347.864 175.266 348.423 170.784H350.582L355.544 163.497L352.952 161.525Z" fill="#B1CDF8"/>
<path d="M342.11 155.069H347.991L352.952 147.781H312.915L307.953 155.069H327.346C329.489 155.071 331.587 155.678 333.399 156.82C335.212 157.963 336.665 159.594 337.591 161.525H312.029L307.067 168.813H338.466C337.921 171.35 336.526 173.624 334.512 175.259C332.497 176.895 329.985 177.793 327.391 177.806H308.43V186.146L323.68 212.948H334.135L318.63 185.083H327.49C331.994 185.042 336.331 183.371 339.698 180.38C343.066 177.389 345.236 173.28 345.809 168.813H348.024L352.986 161.525H345.355C344.71 159.18 343.607 156.985 342.11 155.069Z" fill="#F4F8FF"/>
<path d="M296.246 299.092H194.719V359.264H296.246V299.092Z" fill="#F9A91C"/>
<path d="M270.308 198.716C267.131 197.508 263.689 197.175 260.34 197.753L266.431 182.247L273.497 185.847L270.308 198.716Z" fill="#141930"/>
<path d="M266.365 190.41C269.46 190.41 271.969 187.901 271.969 184.806C271.969 181.711 269.46 179.202 266.365 179.202C263.27 179.202 260.761 181.711 260.761 184.806C260.761 187.901 263.27 190.41 266.365 190.41Z" fill="#E6976D"/>
<path d="M246.639 179.058C246.639 179.058 244.834 188.339 243.04 190.41C241.246 192.481 238.743 194.43 240.127 196.645C241.511 198.86 244.701 199.392 247.326 198.993C249.951 198.594 253.008 197.886 254.802 198.716C256.596 199.547 255.356 187.918 255.356 187.918L251.756 175.879C251.756 175.879 246.086 178.925 246.639 179.058Z" fill="#141930"/>
<path d="M200.08 253.129C195.893 254.99 191.572 256.533 187.155 257.748C189.554 259.37 192.414 260.175 195.307 260.041C198.201 259.907 200.974 258.843 203.214 257.006L200.08 253.129Z" fill="#E6976D"/>
<path d="M241.612 206.801C241.612 206.801 232.376 237.812 200.08 253.129L202.849 258.855C202.849 258.855 225 255.533 248.435 225.441L241.612 206.801Z" fill="#029B89"/>
<path d="M190.155 339.373C190.155 339.373 183.92 348.654 177.552 351.146C177.552 351.146 184.474 351.7 188.35 348.1C192.227 344.501 190.155 339.373 190.155 339.373Z" fill="#E6976D"/>
<path d="M208.75 297.043C208.75 297.043 228.597 340.923 229.639 349.274C230.68 357.625 222.993 369.819 222.993 369.819H226.471L237.967 355.543L225.075 301.573L236.572 300.177L230.646 285.203L209.061 284.86L208.75 297.043Z" fill="#E37463"/>
<path d="M209.947 267.837C209.947 267.837 200.556 265.755 198.462 274.106C196.369 282.457 186.435 348.31 186.435 348.31L195.483 345.874L210.8 287.717L236.273 288.77C236.273 288.77 223.537 272.367 209.947 267.837Z" fill="#E6976D"/>
<path d="M195.462 345.841C195.462 345.841 196.857 350.016 194.421 353.15C191.984 356.285 187.964 361.113 187.964 361.113L186.923 359.375L189.193 352.807L175.028 354.546L167.009 350.016C173.529 350.712 180.121 350.121 186.413 348.277L195.462 345.841Z" fill="#42528E"/>
<path d="M226.472 369.863L237.968 355.587C240.748 358.91 240.05 361.977 240.05 361.977L239.585 373.817H237.547L236.617 363.594L227.579 372.654H218.055L223.05 369.863H226.472Z" fill="#42528E"/>
<path d="M265.634 203.313L275.668 207.743C276.863 208.263 277.83 209.197 278.394 210.372C278.957 211.548 279.078 212.887 278.736 214.144C276.775 221.332 274.173 240.127 276.809 258.213H244.491C244.491 258.213 239.85 229.616 240.282 209.16C240.309 207.914 240.765 206.716 241.571 205.766C242.378 204.816 243.487 204.172 244.712 203.944L253.65 202.338L265.634 203.313Z" fill="#90D0C5"/>
<path d="M270.497 209.936C270.209 213.801 264.638 216.581 258.059 216.06C251.48 215.54 246.386 212.04 246.663 208.164C246.94 204.287 252.521 201.518 259.1 202.039C265.679 202.559 270.774 206.059 270.497 209.936Z" fill="#E37463"/>
<path d="M264.394 190.233C264.394 190.233 264.571 198.727 265.922 203.822C261.499 204.744 256.933 204.744 252.51 203.822C252.51 203.822 255.39 200.942 255.899 191.938L264.394 190.233Z" fill="#E37463"/>
<path d="M243.085 213.723L236.119 227.147C236.119 227.147 238.334 234.456 247.836 233.603L257.693 227.147L243.085 213.723Z" fill="#90D0C5"/>
<path d="M276.809 258.168C276.809 258.168 281.716 271.459 281.993 279.943C282.258 288.116 279.888 298.383 261.359 299.789C243.927 301.107 241.158 301.55 227.812 301.55C227.812 301.55 224.124 274.848 214.998 267.472C214.998 267.472 228.776 263.042 244.492 258.168H276.809Z" fill="#42528E"/>
<path d="M278.526 210.788C278.102 210.493 277.658 210.226 277.197 209.991C272.678 207.776 267.96 214.953 267.96 214.953C267.96 214.953 260.75 229.793 242.376 242.995C242.975 247.99 243.55 252.177 243.949 254.879C253.009 251.025 263.309 245.088 271.693 236.051C273.409 234.19 274.871 232.463 276.123 230.857C276.508 225.204 277.375 219.594 278.715 214.089C278.996 212.996 278.93 211.842 278.526 210.788Z" fill="#01564C"/>
<path d="M268.745 213.258C268.745 213.258 254.713 239.651 218.441 251.933L221.022 258.024C221.022 258.024 251.302 254.879 271.691 234.489C289.966 216.215 280.485 209.902 278.159 208.64C273.729 206.225 268.745 213.258 268.745 213.258Z" fill="#029B89"/>
<path d="M218.442 251.933L204.875 257.006L207.455 263.285C207.455 263.285 214.289 264.393 221.022 258.025L218.442 251.933Z" fill="#E6976D"/>
<g style="mix-blend-mode:multiply" opacity="0.4">
<path d="M264.915 197.952C264.815 197.011 264.727 196.08 264.66 195.227L255.988 191.905H255.9C255.556 198.052 254.095 201.352 253.208 202.825C257.572 202.673 261.732 200.941 264.915 197.952Z" fill="#E37463"/>
</g>
<path d="M248.091 175.447H266.1V190.952C266.107 192.087 265.89 193.211 265.459 194.26C265.029 195.31 264.395 196.263 263.593 197.066C262.792 197.868 261.839 198.503 260.79 198.935C259.742 199.367 258.617 199.586 257.483 199.58H256.608C254.335 199.58 252.155 198.677 250.547 197.069C248.939 195.462 248.036 193.281 248.036 191.008V175.502L248.091 175.447Z" fill="#E6976D"/>
<path d="M261.592 175.879C261.592 175.879 261.725 181.55 265.469 185.016C265.469 185.016 266.986 180.996 268.924 183.632C270.862 186.268 269.068 189.025 265.879 189.446C265.879 189.446 264.915 196.778 267.961 199.968C271.006 203.158 271.006 197.332 275.016 197.886C279.025 198.439 281.661 197.332 279.446 193.732C277.231 190.133 273.498 180.996 273.077 176.566C272.657 172.136 271.283 165.081 266.299 166.742C266.053 165.404 265.354 164.192 264.319 163.308C263.285 162.425 261.978 161.924 260.618 161.891C255.634 161.614 252.178 166.321 248.302 165.634C244.426 164.948 240.549 166.465 239.996 171.172C239.309 176.964 241.38 181.14 248.579 180.165C248.623 180.165 259.233 178.537 261.592 175.879Z" fill="#1E2346"/>
<path d="M304.553 264.67H147.549V270.639H304.553V264.67Z" fill="#1A427D"/>
<path d="M306.358 267.04H145.755V268.269H306.358V267.04Z" fill="#A9BFF8"/>
<path d="M302.106 270.639H151.072V273.452H302.106V270.639Z" fill="#102F54"/>
<path d="M141.58 377.671H136.585L155.015 273.441H162.657L141.58 377.671Z" fill="#E6976D"/>
<path d="M356.625 379.388C387.209 379.388 412.002 354.595 412.002 324.011C412.002 293.428 387.209 268.635 356.625 268.635C326.041 268.635 301.249 293.428 301.249 324.011C301.249 354.595 326.041 379.388 356.625 379.388Z" fill="#FFCC00"/>
<path d="M357.178 366.097C380.728 366.097 399.818 347.255 399.818 324.011C399.818 300.768 380.728 281.925 357.178 281.925C333.629 281.925 314.539 300.768 314.539 324.011C314.539 347.255 333.629 366.097 357.178 366.097Z" fill="#D68900"/>
<path d="M356.625 364.99C379.256 364.99 397.603 346.643 397.603 324.011C397.603 301.379 379.256 283.033 356.625 283.033C333.993 283.033 315.646 301.379 315.646 324.011C315.646 346.643 333.993 364.99 356.625 364.99Z" fill="#F3A100"/>
<path d="M376.521 307.228H371.579C371.026 305.825 370.282 304.506 369.37 303.309H374.465L378.776 296.943L376.521 295.215H341.803L337.492 301.581L339.737 303.309H356.565C357.951 303.059 359.381 303.317 360.596 304.036C361.811 304.754 362.732 305.886 363.193 307.228H340.991L336.689 313.594L338.935 315.321H363.382C362.638 317.138 361.376 318.69 359.756 319.783C358.137 320.876 356.232 321.459 354.283 321.46H337.889V328.734L351.109 352.187L353.363 353.915H362.435L348.981 329.562H356.709C360.615 329.524 364.376 328.062 367.296 325.446C370.217 322.83 372.1 319.237 372.598 315.33H374.465L378.776 308.965L376.521 307.228Z" fill="#D68900"/>
<path d="M137.334 360.56H43.1943V374.958H137.334V360.56Z" fill="#FFCC00"/>
<g style="mix-blend-mode:screen" opacity="0.5">
<path d="M75.3127 360.56H43.1943V374.958H75.3127V360.56Z" fill="#FFCC00"/>
</g>
<g style="mix-blend-mode:multiply" opacity="0.5">
<path d="M137.334 360.56H106.323V374.958H137.334V360.56Z" fill="#FFCC00"/>
</g>
<path d="M134.011 345.054H39.8711V360.56H134.011V345.054Z" fill="#FFCC00"/>
<g style="mix-blend-mode:screen" opacity="0.5">
<path d="M64.2368 345.054H39.8711V360.56H64.2368V345.054Z" fill="#FFCC00"/>
</g>
<g style="mix-blend-mode:multiply" opacity="0.5">
<path d="M134.012 345.054H94.1406V360.56H134.012V345.054Z" fill="#FFCC00"/>
</g>
<path d="M143.979 330.656H49.8389V345.054H143.979V330.656Z" fill="#FFCC00"/>
<g style="mix-blend-mode:screen" opacity="0.5">
<path d="M86.3874 330.656H49.8389V345.054H86.3874V330.656Z" fill="#FFCC00"/>
</g>
<path d="M138.441 316.259H44.3008V330.656H138.441V316.259Z" fill="#FFCC00"/>
<g style="mix-blend-mode:screen" opacity="0.5">
<path d="M71.989 316.259H44.3008V330.656H71.989V316.259Z" fill="#FFCC00"/>
</g>
<g style="mix-blend-mode:multiply" opacity="0.5">
<path d="M138.441 316.259H99.6772V330.656H138.441V316.259Z" fill="#FFCC00"/>
</g>
<g style="mix-blend-mode:multiply" opacity="0.5">
<path d="M134.012 360.56H43.1943V362.775H134.012V360.56Z" fill="#FFCC00"/>
</g>
<g style="mix-blend-mode:multiply" opacity="0.5">
<path d="M138.441 330.656H49.8389V332.871H138.441V330.656Z" fill="#FFCC00"/>
</g>
<path d="M107.431 315.151C135.568 315.151 158.377 292.342 158.377 264.205C158.377 236.068 135.568 213.258 107.431 213.258C79.2939 213.258 56.4844 236.068 56.4844 264.205C56.4844 292.342 79.2939 315.151 107.431 315.151Z" fill="#FFCC00"/>
<path d="M145.733 272.843C150.44 251.717 137.129 230.775 116.003 226.069C94.8775 221.362 73.936 234.672 69.2293 255.798C64.5226 276.924 77.833 297.865 98.9588 302.572C120.085 307.279 141.026 293.969 145.733 272.843Z" fill="#D68900"/>
<path d="M144.225 272.782C148.899 252.49 136.238 232.251 115.946 227.578C95.6535 222.904 75.4148 235.565 70.7411 255.857C66.0675 276.149 78.7288 296.388 99.0209 301.062C119.313 305.735 139.552 293.074 144.225 272.782Z" fill="#F3A100"/>
<path d="M126.358 249.605H121.674C121.145 248.334 120.433 247.141 119.557 246.062H124.39L128.474 240.299L126.358 238.731H93.4352L89.3508 244.501L91.4671 246.062H107.417C108.996 246.06 110.55 246.445 111.932 247.182C112.658 247.891 113.259 248.709 113.709 249.605H92.6875L88.603 255.375L90.7193 256.936H113.907C113.204 258.578 112.011 259.982 110.479 260.973C108.948 261.963 107.146 262.495 105.301 262.502H89.7247V269.1L102.253 290.332L104.369 291.893H112.976L100.236 269.839H107.558C111.265 269.807 114.834 268.482 117.604 266.11C120.373 263.739 122.155 260.482 122.619 256.943H124.39L128.474 251.18L126.358 249.605Z" fill="#D68900"/>
<path d="M117.362 244.551H122.184L126.259 238.731H93.4103L89.335 244.551H105.249C107.007 244.552 108.729 245.037 110.216 245.949C111.703 246.861 112.894 248.164 113.653 249.706H92.6783L88.603 255.526H114.371C113.924 257.561 112.77 259.385 111.104 260.692C109.438 261.998 107.361 262.708 105.221 262.701H89.7081V269.356L102.208 290.785H110.795L98.0769 268.541H105.39C109.089 268.508 112.65 267.172 115.413 264.78C118.176 262.388 119.954 259.102 120.417 255.533H122.184L126.259 249.713H120.002C119.479 247.841 118.582 246.086 117.362 244.551Z" fill="#FFCC00"/>
<path d="M367.159 301.65H372.257L376.561 295.215H341.805L337.492 301.65H354.329C356.187 301.651 358.006 302.188 359.577 303.198C361.148 304.208 362.407 305.651 363.207 307.359H340.993L336.689 313.794H363.938C363.465 316.043 362.25 318.059 360.495 319.506C358.74 320.953 356.55 321.744 354.293 321.745H337.889V329.099L351.117 352.807H360.193L346.75 328.162H354.482C358.377 328.125 362.129 326.657 365.046 324.027C367.964 321.398 369.851 317.783 370.362 313.849H372.239L376.542 307.414H369.929C369.381 305.328 368.441 303.37 367.159 301.65Z" fill="#FFCC00"/>
<path d="M308.429 377.671H313.435L294.995 273.441H287.364L308.429 377.671Z" fill="#E6976D"/>
<path d="M211.267 261.912H160.043L151.072 228.564H202.296L211.267 261.912Z" fill="#F0F1F5"/>
<path d="M211.387 261.912H209.859L200.888 228.564L202.405 230.148L211.387 261.912Z" fill="#CBCED8"/>
<path d="M232.863 261.912H160.043V264.67H232.863V261.912Z" fill="#CBCED8"/>
<path d="M182.094 245.642C182.636 248.544 180.986 251.28 178.539 251.745C176.091 252.21 173.555 250.228 173.001 247.315C172.447 244.402 174.053 241.677 176.556 241.212C179.059 240.747 181.551 242.774 182.094 245.642Z" fill="#CBCED8"/>
<path d="M44.5482 367.426H15.1322L11.4663 330.823H48.2252L44.5482 367.426Z" fill="#F0F1F3"/>
<path d="M48.2252 330.823C48.2252 328.796 39.9963 327.146 29.8402 327.146C19.6842 327.146 11.4663 328.796 11.4663 330.823C11.4663 332.849 19.6953 334.488 29.8402 334.488C39.9852 334.488 48.2252 332.849 48.2252 330.823Z" fill="#F0F1F3"/>
<path d="M45.945 330.823C45.945 329.039 38.7128 327.589 29.7972 327.589C20.8816 327.589 13.6494 329.039 13.6494 330.823C13.6494 332.606 20.8816 334.045 29.7972 334.045C38.7128 334.045 45.945 332.606 45.945 330.823Z" fill="#1E2346"/>
<path d="M44.5493 367.305C44.5493 365.278 37.9595 363.639 29.8413 363.639C21.7231 363.639 15.1333 365.278 15.1333 367.305C15.1333 369.331 21.7785 370.982 29.8413 370.982C37.9041 370.982 44.5493 369.331 44.5493 367.305Z" fill="#F0F1F3"/>
<path d="M47.4724 318.152C47.4789 316.686 47.03 315.254 46.1877 314.054C45.5564 312.947 45.0801 311.972 45.789 310.898C46.3523 310.26 47.028 309.731 47.7825 309.336C48.7993 308.731 49.8494 308.184 50.9279 307.697C53.3624 306.661 55.652 305.314 57.7392 303.688C58.5971 302.968 59.3436 302.124 59.9543 301.185C60.4319 300.455 60.7838 299.65 60.9953 298.804C61.2768 297.342 61.4471 295.861 61.5048 294.374C61.5735 293.979 61.7219 293.603 61.9409 293.268C62.1599 292.933 62.4449 292.646 62.7785 292.424C63.6601 291.777 64.5979 291.21 65.5805 290.73C66.6881 290.209 67.7956 289.744 68.9031 289.224C69.9246 288.787 70.9035 288.257 71.827 287.64C72.2636 287.318 72.6388 286.921 72.9345 286.466C73.231 286.028 73.4727 285.556 73.6544 285.059C73.9942 284.053 74.199 283.007 74.2636 281.947C74.3584 281.039 74.1804 280.123 73.7523 279.316C73.3243 278.509 72.6655 277.848 71.8602 277.417C70.8872 276.899 69.8359 276.544 68.7481 276.365C68.1633 276.293 67.5719 276.293 66.9871 276.365C66.3839 276.463 65.8005 276.657 65.2593 276.941C64.1336 277.541 63.091 278.286 62.1583 279.156C61.1504 280.109 60.1315 281.117 59.1901 282.091C58.3756 283.015 57.4866 283.871 56.532 284.65C55.8891 285.262 55.0656 285.651 54.184 285.757C52.52 285.632 50.8467 285.763 49.2223 286.145C48.2094 286.434 47.2461 286.875 46.3649 287.452C45.2338 288.253 44.2263 289.215 43.3745 290.309C41.4866 292.881 40.1586 295.82 39.476 298.937C39.0773 300.343 38.8226 301.706 38.5457 302.835C38.3634 303.768 38.0424 304.667 37.5932 305.504C36.8623 306.756 35.7547 306.756 34.4036 306.767C32.7687 306.615 31.1391 307.107 29.8627 308.14C29.1856 308.792 28.7884 309.682 28.7551 310.621C28.69 311.984 28.768 313.35 28.9877 314.697C29.176 316.258 29.5526 318.019 29.8959 319.98C30.2392 321.94 30.649 323.978 30.9148 326.138C30.9367 326.469 31.0536 326.787 31.2515 327.054C31.4495 327.32 31.72 327.524 32.0308 327.641C32.3417 327.758 32.6796 327.783 33.0041 327.713C33.3287 327.642 33.6261 327.48 33.8609 327.245C35.3197 325.859 36.9325 324.644 38.6675 323.624C40.0744 322.802 41.5277 322.062 43.0201 321.408C44.1024 320.958 45.15 320.429 46.1544 319.825C46.4904 319.67 46.7849 319.437 47.0139 319.147C47.2429 318.856 47.4 318.515 47.4724 318.152Z" fill="#26377C"/>
<path d="M30.7719 331.576C30.7179 331.557 30.6683 331.528 30.626 331.49C30.5837 331.452 30.5496 331.405 30.5258 331.353C30.502 331.302 30.4889 331.246 30.4874 331.189C30.486 331.132 30.4961 331.075 30.5171 331.022L31.3367 328.43C31.5804 327.589 31.9569 326.603 32.4442 325.484C32.9315 324.366 33.3192 323.07 33.9505 321.719C36.8114 315.03 40.5066 308.73 44.9482 302.968C49.3561 297.169 54.4888 291.958 60.2211 287.463C62.5248 285.591 64.6512 284.24 66.0245 283.232L68.3393 281.792C68.3854 281.759 68.4378 281.735 68.4932 281.723C68.5487 281.711 68.6061 281.709 68.662 281.72C68.7179 281.73 68.7711 281.752 68.8184 281.783C68.8657 281.815 68.9062 281.855 68.9374 281.903C68.9892 282.005 68.9997 282.123 68.9667 282.232C68.9337 282.341 68.8597 282.434 68.7602 282.49L66.4676 283.919C65.0721 284.915 63.0121 286.256 60.7195 288.105C58.087 290.178 55.5726 292.396 53.1883 294.75C50.4731 297.472 47.9388 300.369 45.6017 303.422C41.2024 309.132 37.5374 315.372 34.6925 321.996C34.0834 323.325 33.585 324.598 33.2084 325.717C32.8319 326.835 32.411 327.81 32.1784 328.641L31.3589 331.21C31.351 331.276 31.3284 331.339 31.2928 331.395C31.2572 331.451 31.2095 331.499 31.1531 331.534C31.0968 331.569 31.0332 331.591 30.9672 331.598C30.9012 331.605 30.8345 331.598 30.7719 331.576Z" fill="white"/>
<path d="M35.0797 311.441C34.0756 310.252 32.6426 309.508 31.0926 309.37C29.8078 309.115 28.7446 308.916 28.3791 307.675C28.1636 306.844 28.0887 305.983 28.1576 305.128C28.1576 304.02 28.2905 302.802 28.2684 301.462C28.4075 298.556 27.877 295.657 26.7178 292.989C26.1747 291.856 25.4488 290.819 24.5692 289.921C23.8754 289.251 23.0743 288.7 22.1991 288.293C20.7454 287.713 19.2092 287.365 17.6471 287.263C16.8648 287.069 16.1799 286.596 15.72 285.934C15.0055 285.091 14.3714 284.182 13.8262 283.221C13.1838 282.191 12.4639 281.117 11.7329 280.109C11.4042 279.613 11.0337 279.146 10.6254 278.713C10.2431 278.315 9.83222 277.945 9.39604 277.606C8.95708 277.275 8.46171 277.028 7.9341 276.875C7.40153 276.746 6.85333 276.694 6.30603 276.72C5.2562 276.77 4.22257 276.999 3.24925 277.395C2.42107 277.746 1.69961 278.308 1.15726 279.025C0.614902 279.742 0.270718 280.59 0.159237 281.482C-0.005306 282.474 -0.0425231 283.482 0.0484856 284.483C0.0982665 284.961 0.209956 285.43 0.380744 285.879C0.535456 286.321 0.776393 286.727 1.08956 287.075C1.39861 287.404 1.73997 287.701 2.10849 287.961L3.33785 288.814C4.19065 289.401 5.1542 289.921 6.007 290.542C6.7825 291.082 7.50227 291.697 8.15561 292.38C8.40738 292.629 8.59984 292.932 8.71871 293.265C8.83758 293.599 8.87981 293.955 8.84228 294.307C8.5189 295.655 8.29678 297.025 8.17776 298.405C8.15819 299.158 8.27449 299.908 8.52109 300.62C8.81991 301.512 9.27355 302.344 9.8612 303.079C11.3943 304.804 13.1702 306.296 15.133 307.509C16.011 308.087 16.8542 308.715 17.6582 309.392C18.2575 309.844 18.7586 310.413 19.1312 311.064C19.541 312.105 18.81 312.858 17.9019 313.722C16.8062 314.569 15.9917 315.727 15.565 317.045C15.4321 317.61 15.72 318.152 16.3292 318.706C17.1249 319.403 17.9687 320.044 18.8544 320.622C20.0929 321.442 21.2802 322.337 22.4095 323.302C23.7897 324.462 25.0311 325.778 26.1087 327.223C26.2903 327.48 26.5356 327.686 26.8205 327.819C27.1054 327.953 27.4202 328.011 27.734 327.986C28.0478 327.961 28.3498 327.856 28.6105 327.679C28.8711 327.503 29.0815 327.262 29.2208 326.979C30.0515 325.163 31.0372 323.446 31.8457 321.84C32.6542 320.235 33.5402 318.739 34.1383 317.41C34.7189 316.28 35.1686 315.087 35.4784 313.855C35.591 313.448 35.6137 313.021 35.5449 312.604C35.476 312.187 35.3173 311.79 35.0797 311.441Z" fill="#86D4D4"/>
<path d="M27.8701 331.709C27.7621 331.712 27.657 331.673 27.5766 331.601C27.4962 331.529 27.4467 331.429 27.4382 331.321L27.3606 328.951C27.3606 328.187 27.261 327.279 27.1613 326.237C27.0616 325.196 26.9619 324.022 26.7293 322.727C25.7911 316.464 23.9559 310.369 21.2803 304.63C19.8621 301.559 18.2185 298.597 16.3629 295.769C14.7293 293.316 12.9388 290.97 11.0024 288.748C9.33004 286.765 7.74628 285.303 6.69412 284.218L4.96637 282.645C4.89062 282.568 4.84814 282.465 4.84814 282.357C4.84814 282.249 4.89062 282.146 4.96637 282.069C5.00262 282.031 5.04638 282 5.09495 281.979C5.14352 281.958 5.19588 281.947 5.2488 281.947C5.30171 281.947 5.35407 281.958 5.40264 281.979C5.45121 282 5.49497 282.031 5.53121 282.069L7.32542 283.664C8.43295 284.772 9.99456 286.256 11.6891 288.249C13.6442 290.504 15.4567 292.879 17.116 295.36C18.986 298.227 20.6478 301.225 22.0888 304.33C24.8028 310.14 26.6677 316.309 27.6264 322.649C27.859 323.945 27.9587 325.141 28.0584 326.204C28.1581 327.267 28.2577 328.187 28.2577 328.951C28.2577 330.479 28.3463 331.354 28.3463 331.354C28.345 331.411 28.3307 331.468 28.3044 331.518C28.2781 331.569 28.2406 331.613 28.1947 331.648C28.1488 331.682 28.0957 331.705 28.0394 331.716C27.9832 331.726 27.9253 331.724 27.8701 331.709Z" fill="white"/>
<path d="M38.3693 308.749C37.7836 307.272 36.7393 306.022 35.39 305.183C34.2825 304.375 33.4297 303.666 33.6069 302.16C33.828 301.198 34.2019 300.278 34.7144 299.435C35.3577 298.249 36.06 297.096 36.8187 295.98C38.593 293.459 40.0789 290.747 41.2489 287.895C41.6966 286.665 41.9941 285.386 42.1349 284.085C42.2582 283.082 42.2283 282.066 42.0463 281.072C41.6804 279.461 41.1802 277.882 40.5511 276.354C40.3423 275.451 40.456 274.503 40.8723 273.674C41.4109 272.523 42.0328 271.412 42.733 270.351C43.5082 269.188 44.4164 268.026 45.1917 266.863C45.5793 266.276 45.9669 265.755 46.2992 265.168C46.6337 264.65 46.9334 264.109 47.1963 263.551C47.4581 262.988 47.6264 262.385 47.6947 261.768C47.7666 261.18 47.7666 260.584 47.6947 259.996C47.5744 258.856 47.2986 257.738 46.8751 256.673C46.5744 255.807 45.9919 255.067 45.2209 254.571C44.4499 254.075 43.5349 253.852 42.6222 253.938C41.4514 254.052 40.3069 254.355 39.2332 254.835C38.6372 255.107 38.0758 255.449 37.5608 255.854C37.0409 256.303 36.5894 256.825 36.2207 257.404C35.8526 257.997 35.5198 258.611 35.2239 259.243C34.8913 259.931 34.6063 260.642 34.3711 261.369C33.8727 262.864 33.3854 264.415 32.9535 265.899C32.6076 267.26 32.171 268.595 31.6466 269.897C31.3351 270.847 30.7587 271.689 29.9853 272.323C28.3847 273.184 26.9153 274.269 25.6216 275.546C24.8311 276.416 24.1607 277.388 23.6281 278.436C22.9531 279.842 22.4689 281.332 22.1883 282.866C21.632 286.408 21.7485 290.023 22.5316 293.521C22.8085 295.138 23.185 296.622 23.4508 297.951C23.7062 298.994 23.8216 300.067 23.7942 301.141C23.7167 302.802 22.6867 303.356 21.5127 304.131C19.9338 304.904 18.7098 306.251 18.0904 307.897C17.7955 308.902 17.8581 309.978 18.2676 310.942C18.8223 312.339 19.5123 313.678 20.3276 314.941C21.2026 316.425 22.3655 318.064 23.5616 319.847C24.7577 321.63 26.0646 323.568 27.3051 325.673C27.4465 325.993 27.687 326.26 27.9914 326.434C28.2958 326.608 28.6479 326.68 28.9961 326.639C29.3444 326.598 29.6703 326.447 29.9261 326.207C30.1818 325.967 30.354 325.652 30.4172 325.307C31.0782 323.184 31.9578 321.135 33.0421 319.193C33.9149 317.618 34.8725 316.091 35.9106 314.619C36.676 313.563 37.3645 312.452 37.9706 311.297C38.2159 310.926 38.3784 310.506 38.4472 310.067C38.516 309.627 38.4894 309.178 38.3693 308.749Z" fill="#F3CE87"/>
<path d="M29.7188 331.443C29.4973 331.443 29.2869 331.277 29.2426 330.989L28.7552 327.888C28.6888 327.389 28.578 326.846 28.5227 326.248C28.4673 325.65 28.3898 324.997 28.3122 324.299C28.1683 322.915 27.98 321.364 27.9135 319.648C27.3837 311.276 27.8372 302.872 29.2647 294.606C30.0196 290.193 31.0366 285.829 32.3104 281.537C33.4496 277.804 34.7842 274.133 36.3086 270.54C37.6044 267.361 38.9445 264.836 39.8084 263.031C40.6723 261.225 41.3146 260.273 41.3146 260.273C41.3328 260.213 41.3642 260.158 41.4066 260.111C41.4489 260.065 41.501 260.028 41.5592 260.005C41.6174 259.981 41.6801 259.971 41.7427 259.975C41.8054 259.979 41.8664 259.996 41.9213 260.027C41.9763 260.057 42.0237 260.099 42.0601 260.151C42.0966 260.202 42.1211 260.26 42.132 260.322C42.1428 260.384 42.1397 260.447 42.1228 260.508C42.106 260.568 42.0758 260.624 42.0345 260.672C42.0345 260.672 41.4918 261.668 40.5283 263.407C39.5647 265.146 38.3132 267.704 37.0617 270.85C33.7926 278.508 31.443 286.527 30.0621 294.739C28.6467 302.943 28.2006 311.284 28.7331 319.592C28.7995 321.298 28.9768 322.837 29.1318 324.222C29.1983 324.908 29.2647 325.551 29.3312 326.138C29.3976 326.725 29.4973 327.245 29.5637 327.766C29.8738 329.726 30.04 330.845 30.04 330.845C30.0719 330.966 30.0565 331.096 29.997 331.207C29.9374 331.318 29.838 331.402 29.7188 331.443Z" fill="white"/>
<path d="M443.26 367.426H413.844L410.178 330.823H446.937L443.26 367.426Z" fill="#F0F1F3"/>
<path d="M446.937 330.823C446.937 328.796 438.708 327.146 428.552 327.146C418.396 327.146 410.178 328.796 410.178 330.823C410.178 332.849 418.407 334.488 428.552 334.488C438.697 334.488 446.937 332.849 446.937 330.823Z" fill="#F0F1F3"/>
<path d="M444.656 330.823C444.656 329.039 437.424 327.589 428.509 327.589C419.593 327.589 412.361 329.039 412.361 330.823C412.361 332.606 419.593 334.045 428.509 334.045C437.424 334.045 444.656 332.606 444.656 330.823Z" fill="#1E2346"/>
<path d="M443.261 367.305C443.261 365.278 436.671 363.639 428.553 363.639C420.435 363.639 413.845 365.278 413.845 367.305C413.845 369.331 420.435 370.982 428.553 370.982C436.671 370.982 443.261 369.331 443.261 367.305Z" fill="#F0F1F3"/>
<path d="M446.183 318.152C446.19 316.686 445.741 315.254 444.899 314.055C444.267 312.947 443.791 311.972 444.5 310.898C445.063 310.26 445.739 309.731 446.493 309.336C447.51 308.731 448.56 308.184 449.639 307.697C452.076 306.644 454.366 305.278 456.45 303.633C457.308 302.912 458.055 302.069 458.665 301.13C459.143 300.4 459.495 299.595 459.706 298.748C459.988 297.287 460.158 295.806 460.216 294.318C460.284 293.924 460.433 293.548 460.652 293.213C460.871 292.877 461.156 292.59 461.489 292.369C462.371 291.722 463.309 291.155 464.291 290.675C465.399 290.154 466.507 289.689 467.614 289.168C468.636 288.732 469.614 288.202 470.538 287.585C470.975 287.263 471.35 286.865 471.645 286.411C471.942 285.973 472.184 285.5 472.365 285.004C472.705 283.998 472.91 282.952 472.975 281.892C473.069 280.983 472.891 280.067 472.463 279.261C472.035 278.454 471.376 277.793 470.571 277.362C469.598 276.844 468.547 276.488 467.459 276.31C466.874 276.238 466.283 276.238 465.698 276.31C465.095 276.408 464.511 276.602 463.97 276.886C462.844 277.486 461.802 278.231 460.869 279.101C459.861 280.053 458.842 281.061 457.901 282.036C457.086 282.96 456.197 283.816 455.243 284.594C454.6 285.207 453.777 285.595 452.895 285.702C451.231 285.577 449.558 285.708 447.933 286.089C446.92 286.379 445.957 286.819 445.076 287.396C443.945 288.197 442.937 289.16 442.085 290.254C440.198 292.826 438.87 295.765 438.187 298.881C437.788 300.288 437.534 301.65 437.257 302.78C437.069 303.711 436.748 304.61 436.304 305.449C435.573 306.701 434.466 306.701 433.114 306.712C431.48 306.559 429.85 307.052 428.574 308.085C427.896 308.737 427.499 309.626 427.466 310.566C427.401 311.929 427.479 313.295 427.699 314.642C427.887 316.203 428.264 317.964 428.607 319.924C428.95 321.885 429.36 323.923 429.626 326.082C429.648 326.414 429.765 326.732 429.962 326.998C430.16 327.265 430.431 327.469 430.742 327.586C431.053 327.703 431.39 327.727 431.715 327.657C432.04 327.587 432.337 327.425 432.572 327.19C434.043 325.851 435.659 324.681 437.39 323.701C438.801 322.881 440.258 322.142 441.753 321.486C442.835 321.036 443.883 320.507 444.888 319.902C445.229 319.737 445.525 319.491 445.751 319.187C445.976 318.882 446.125 318.527 446.183 318.152Z" fill="#26377C"/>
<path d="M429.483 331.576C429.429 331.557 429.38 331.528 429.337 331.49C429.295 331.451 429.261 331.405 429.237 331.353C429.213 331.301 429.2 331.245 429.199 331.188C429.197 331.131 429.207 331.075 429.229 331.022L430.048 328.43C430.292 327.588 430.668 326.603 431.1 325.484C431.532 324.366 431.975 323.07 432.607 321.719C435.467 315.03 439.163 308.73 443.604 302.968C445.971 299.892 448.53 296.969 451.268 294.219C453.677 291.841 456.213 289.597 458.866 287.496C461.181 285.624 463.296 284.273 464.681 283.265L466.995 281.825C467.041 281.792 467.094 281.769 467.149 281.756C467.205 281.744 467.262 281.743 467.318 281.753C467.374 281.763 467.427 281.785 467.474 281.816C467.522 281.848 467.562 281.888 467.593 281.936C467.645 282.038 467.656 282.156 467.623 282.265C467.59 282.375 467.516 282.467 467.416 282.523L465.124 283.952C463.728 284.948 461.668 286.289 459.376 288.138C456.743 290.211 454.229 292.429 451.844 294.783C449.129 297.506 446.595 300.402 444.258 303.455C439.858 309.166 436.193 315.405 433.349 322.029C432.739 323.358 432.241 324.631 431.864 325.75C431.488 326.869 431.067 327.843 430.834 328.674L430.015 331.243C430.002 331.3 429.978 331.354 429.944 331.401C429.91 331.448 429.867 331.489 429.818 331.52C429.769 331.55 429.714 331.571 429.656 331.581C429.599 331.59 429.54 331.589 429.483 331.576Z" fill="white"/>
<path d="M433.791 311.441C432.787 310.252 431.354 309.508 429.804 309.37C428.519 309.115 427.456 308.916 427.091 307.675C426.875 306.844 426.8 305.983 426.869 305.128C426.869 304.02 427.002 302.802 426.98 301.462C427.119 298.556 426.589 295.657 425.429 292.989C424.886 291.856 424.16 290.819 423.281 289.921C422.587 289.251 421.786 288.7 420.911 288.293C419.457 287.713 417.921 287.365 416.359 287.263C415.576 287.069 414.891 286.596 414.432 285.934C413.717 285.091 413.083 284.182 412.538 283.221C411.895 282.191 411.164 281.117 410.444 280.109C410.116 279.613 409.745 279.146 409.337 278.713C408.955 278.315 408.544 277.945 408.108 277.606C407.669 277.275 407.173 277.028 406.646 276.875C406.113 276.746 405.565 276.694 405.018 276.72C403.968 276.77 402.934 276.999 401.961 277.395C401.133 277.746 400.411 278.308 399.869 279.025C399.326 279.742 398.982 280.59 398.871 281.482C398.712 282.474 398.675 283.482 398.76 284.483C398.81 284.961 398.921 285.43 399.092 285.879C399.247 286.321 399.488 286.727 399.801 287.075C400.11 287.404 400.452 287.701 400.82 287.961L402.049 288.814C402.902 289.401 403.866 289.921 404.719 290.542C405.494 291.082 406.214 291.697 406.867 292.38C407.119 292.629 407.311 292.932 407.43 293.265C407.549 293.599 407.591 293.955 407.554 294.307C407.23 295.655 407.008 297.025 406.889 298.405C406.87 299.158 406.986 299.908 407.233 300.62C407.531 301.512 407.985 302.344 408.573 303.079C410.106 304.804 411.882 306.296 413.845 307.509C414.723 308.087 415.566 308.715 416.37 309.392C416.969 309.844 417.47 310.413 417.843 311.064C418.253 312.105 417.522 312.858 416.613 313.722C415.518 314.569 414.703 315.727 414.277 317.045C414.144 317.61 414.432 318.152 415.041 318.706C415.836 319.403 416.68 320.044 417.566 320.622C418.804 321.442 419.992 322.337 421.121 323.302C422.501 324.462 423.743 325.778 424.82 327.223C425.002 327.48 425.247 327.686 425.532 327.819C425.817 327.953 426.132 328.011 426.446 327.986C426.759 327.961 427.061 327.856 427.322 327.679C427.583 327.503 427.793 327.262 427.932 326.979C428.763 325.163 429.749 323.446 430.557 321.84C431.366 320.235 432.252 318.739 432.85 317.41C433.43 316.28 433.88 315.087 434.19 313.855C434.303 313.448 434.325 313.021 434.256 312.604C434.188 312.187 434.029 311.79 433.791 311.441Z" fill="#86D4D4"/>
<path d="M426.58 331.709C426.472 331.712 426.367 331.673 426.287 331.601C426.206 331.529 426.157 331.429 426.148 331.321L426.071 328.951C426.071 328.187 425.971 327.279 425.871 326.237C425.772 325.196 425.672 324.022 425.439 322.727C424.501 316.464 422.666 310.369 419.99 304.63C417.353 298.865 413.891 293.515 409.712 288.748C408.04 286.765 406.456 285.303 405.404 284.218L403.676 282.645C403.601 282.568 403.558 282.465 403.558 282.357C403.558 282.249 403.601 282.146 403.676 282.069C403.713 282.031 403.756 282 403.805 281.979C403.853 281.958 403.906 281.947 403.959 281.947C404.012 281.947 404.064 281.958 404.113 281.979C404.161 282 404.205 282.031 404.241 282.069L406.035 283.664C407.143 284.772 408.705 286.256 410.399 288.249C414.63 293.075 418.133 298.492 420.799 304.33C423.513 310.14 425.378 316.309 426.336 322.649C426.569 323.945 426.669 325.141 426.768 326.204C426.868 327.267 426.968 328.187 426.968 328.951C427.023 330.479 427.056 331.354 427.056 331.354C427.055 331.411 427.041 331.468 427.014 331.518C426.988 331.569 426.951 331.613 426.905 331.648C426.859 331.682 426.806 331.705 426.749 331.716C426.693 331.726 426.635 331.724 426.58 331.709Z" fill="white"/>
<path d="M437.08 308.749C436.495 307.272 435.45 306.022 434.101 305.183C432.994 304.375 432.141 303.666 432.318 302.16C432.539 301.198 432.913 300.278 433.426 299.435C434.069 298.249 434.771 297.096 435.53 295.98C437.304 293.459 438.79 290.747 439.96 287.895C440.408 286.665 440.705 285.386 440.846 284.085C440.969 283.082 440.939 282.066 440.757 281.072C440.392 279.461 439.891 277.882 439.262 276.354C439.053 275.451 439.167 274.503 439.583 273.674C440.122 272.523 440.744 271.412 441.444 270.351C442.219 269.188 443.128 268.026 443.903 266.863C444.29 266.276 444.678 265.755 445.01 265.168C445.345 264.65 445.645 264.109 445.907 263.551C446.169 262.988 446.338 262.385 446.406 261.768C446.496 261.182 446.515 260.587 446.461 259.996C446.341 258.856 446.065 257.738 445.642 256.673C445.342 255.789 444.749 255.034 443.962 254.532C443.174 254.031 442.239 253.813 441.311 253.916C440.14 254.029 438.996 254.332 437.922 254.813C437.326 255.085 436.765 255.427 436.25 255.832C435.73 256.28 435.278 256.803 434.91 257.382C434.542 257.975 434.209 258.589 433.913 259.221C433.58 259.909 433.295 260.62 433.06 261.347C432.562 262.842 432.074 264.393 431.642 265.877C431.297 267.237 430.86 268.573 430.336 269.875C430.024 270.825 429.448 271.667 428.674 272.301C427.074 273.162 425.604 274.247 424.311 275.524C423.52 276.394 422.85 277.366 422.317 278.414C421.642 279.82 421.158 281.31 420.877 282.844C420.321 286.386 420.437 290 421.221 293.499C421.497 295.116 421.874 296.6 422.14 297.929C422.395 298.972 422.511 300.045 422.483 301.119C422.406 302.78 421.376 303.334 420.202 304.109C418.623 304.882 417.399 306.229 416.779 307.874C416.484 308.88 416.547 309.956 416.957 310.92C417.507 312.319 418.197 313.658 419.017 314.918C419.892 316.402 421.054 318.042 422.251 319.825C423.447 321.608 424.754 323.546 425.994 325.65C426.135 325.971 426.376 326.238 426.68 326.412C426.985 326.586 427.337 326.658 427.685 326.617C428.033 326.576 428.359 326.425 428.615 326.185C428.871 325.945 429.043 325.63 429.106 325.285C429.782 323.164 430.677 321.119 431.775 319.182C432.648 317.607 433.606 316.08 434.644 314.608C435.409 313.552 436.098 312.441 436.704 311.286C436.944 310.914 437.102 310.496 437.167 310.058C437.231 309.621 437.202 309.175 437.08 308.749Z" fill="#F3CE87"/>
<path d="M428.43 331.443C428.209 331.443 427.998 331.277 427.954 330.989L427.467 327.888C427.4 327.389 427.289 326.846 427.234 326.248C427.179 325.65 427.101 324.997 427.024 324.299C426.88 322.915 426.691 321.364 426.625 319.648C426.095 311.276 426.549 302.872 427.976 294.606C428.731 290.193 429.748 285.829 431.022 281.537C432.161 277.804 433.496 274.133 435.02 270.54C436.316 267.361 437.656 264.836 438.52 263.031C439.384 261.225 440.026 260.273 440.026 260.273C440.044 260.213 440.076 260.158 440.118 260.111C440.16 260.065 440.212 260.028 440.271 260.005C440.329 259.981 440.392 259.971 440.454 259.975C440.517 259.979 440.578 259.996 440.633 260.027C440.688 260.057 440.735 260.099 440.772 260.151C440.808 260.202 440.833 260.26 440.843 260.322C440.854 260.384 440.851 260.447 440.834 260.508C440.817 260.568 440.787 260.624 440.746 260.672C440.746 260.672 440.203 261.668 439.24 263.407C438.276 265.146 437.025 267.704 435.773 270.85C432.504 278.508 430.154 286.527 428.774 294.739C427.358 302.943 426.912 311.284 427.445 319.592C427.511 321.298 427.688 322.837 427.843 324.222C427.91 324.908 427.976 325.551 428.043 326.138C428.109 326.725 428.209 327.245 428.275 327.766C428.585 329.726 428.751 330.845 428.751 330.845C428.783 330.966 428.768 331.096 428.708 331.207C428.649 331.318 428.549 331.402 428.43 331.443Z" fill="white"/>
</svg>
